<?xml version="1.0" standalone="yes"?>

<svg version="1.1" viewBox="0.0 0.0 609.0419947506562 609.0419947506562" fill="none" stroke="none" stroke-linecap="square" stroke-miterlimit="10" xmlns="http://www.w3.org/2000/svg" xmlns:xlink="http://www.w3.org/1999/xlink"><clipPath id="p.0"><path d="m0 0l609.042 0l0 609.042l-609.042 0l0 -609.042z" clip-rule="nonzero"></path></clipPath><g clip-path="url(#p.0)"><path fill="#000000" fill-opacity="0.0" d="m0 0l609.042 0l0 609.042l-609.042 0z" fill-rule="evenodd"></path><path fill="#ffffff" d="m0 -3.3333334E-5l608.9764 0l0 609.03937l-608.9764 0z" fill-rule="evenodd"></path><path fill="#ffffff" d="m283.62482 301.1428q1.484375 0 2.65625 0.671875q1.1875 0.65625 1.859375 1.84375q0.671875 1.171875 0.671875 2.6875l0 3.8125q0 1.484375 -0.671875 2.6875q-0.65625 1.21875 -1.84375 1.921875q-1.171875 0.703125 -2.640625 0.703125q-1.4375 0 -2.5625 -0.546875q-1.109375 -0.53125 -1.875 -1.5q-0.171875 -0.1875 -0.171875 -0.4375q0 -0.28125 0.265625 -0.484375q0.1875 -0.125 0.40625 -0.125q0.171875 0 0.328125 0.078125q0.171875 0.078125 0.265625 0.21875q0.5625 0.703125 1.421875 1.09375q0.859375 0.390625 1.9375 0.390625q1.046875 0 1.890625 -0.515625q0.859375 -0.5 1.34375 -1.4375q0.484375 -0.921875 0.484375 -2.109375l0 -0.84375q-0.5625 1.0625 -1.59375 1.671875q-1.015625 0.609375 -2.328125 0.609375q-1.453125 0 -2.609375 -0.65625q-1.140625 -0.671875 -1.78125 -1.84375q-0.640625 -1.1875 -0.640625 -2.6875q0 -1.515625 0.671875 -2.6875q0.671875 -1.1875 1.84375 -1.84375q1.1875 -0.671875 2.671875 -0.671875zm0 9.078125q1.078125 0 1.9375 -0.484375q0.859375 -0.5 1.34375 -1.375q0.484375 -0.890625 0.484375 -2.015625q0 -1.125 -0.484375 -2.0q-0.484375 -0.890625 -1.34375 -1.390625q-0.859375 -0.515625 -1.9375 -0.515625q-1.109375 0 -1.96875 0.515625q-0.859375 0.5 -1.34375 1.390625q-0.484375 0.875 -0.484375 2.0q0 1.125 0.484375 2.015625q0.484375 0.875 1.34375 1.375q0.859375 0.484375 1.96875 0.484375zm12.63028 -9.078125q1.453125 0 2.640625 0.6875q1.1875 0.671875 1.859375 1.875q0.6875 1.1875 0.6875 2.640625l0 4.390625q0 0.296875 -0.21875 0.5q-0.203125 0.203125 -0.515625 0.203125q-0.3125 0 -0.515625 -0.1875q-0.203125 -0.203125 -0.203125 -0.515625l0 -1.125q-0.65625 0.890625 -1.671875 1.40625q-1.0 0.515625 -2.21875 0.515625q-1.421875 0 -2.5625 -0.671875q-1.140625 -0.6875 -1.8125 -1.875q-0.65625 -1.1875 -0.65625 -2.640625q0 -1.453125 0.671875 -2.640625q0.6875 -1.203125 1.875 -1.875q1.1875 -0.6875 2.640625 -0.6875zm0 9.078125q1.0625 0 1.921875 -0.5q0.859375 -0.5 1.34375 -1.390625q0.5 -0.890625 0.5 -1.984375q0 -1.09375 -0.5 -1.984375q-0.484375 -0.890625 -1.34375 -1.40625q-0.859375 -0.515625 -1.921875 -0.515625q-1.0625 0 -1.9375 0.515625q-0.859375 0.515625 -1.359375 1.40625q-0.5 0.890625 -0.5 1.984375q0 1.09375 0.5 1.984375q0.5 0.890625 1.359375 1.390625q0.875 0.5 1.9375 0.5zm18.72403 -9.09375q1.109375 0 1.953125 0.53125q0.84375 0.515625 1.3125 1.484375q0.484375 0.953125 0.484375 2.21875l0 5.375q0 0.3125 -0.203125 0.515625q-0.1875 0.1875 -0.5 0.1875q-0.3125 0 -0.53125 -0.1875q-0.203125 -0.203125 -0.203125 -0.515625l0 -5.375q0 -1.328125 -0.6875 -2.09375q-0.671875 -0.78125 -1.765625 -0.78125q-1.1875 0 -1.921875 0.78125q-0.71875 0.78125 -0.703125 2.046875l0 0.046875l0 5.375q0 0.3125 -0.203125 0.515625q-0.1875 0.1875 -0.5 0.1875q-0.3125 0 -0.515625 -0.1875q-0.203125 -0.203125 -0.203125 -0.515625l0 -5.375q0 -1.328125 -0.6875 -2.09375q-0.6875 -0.78125 -1.78125 -0.78125q-1.15625 0 -1.90625 0.765625q-0.75 0.765625 -0.75 1.953125l0 5.53125q0 0.3125 -0.203125 0.515625q-0.1875 0.1875 -0.5 0.1875q-0.3125 0 -0.53125 -0.1875q-0.203125 -0.203125 -0.203125 -0.515625l0 -8.78125q0 -0.3125 0.203125 -0.515625q0.21875 -0.203125 0.53125 -0.203125q0.3125 0 0.5 0.203125q0.203125 0.203125 0.203125 0.515625l0 0.421875q0.53125 -0.59375 1.25 -0.921875q0.71875 -0.328125 1.546875 -0.328125q1.03125 0 1.84375 0.46875q0.828125 0.453125 1.3125 1.296875q0.546875 -0.84375 1.40625 -1.296875q0.875 -0.46875 1.953125 -0.46875zm11.276855 0.015625q1.375 0 2.4375 0.640625q1.0625 0.640625 1.640625 1.78125q0.59375 1.140625 0.59375 2.59375q0 0.296875 -0.1875 0.484375q-0.1875 0.171875 -0.484375 0.171875l-7.53125 0q0.15625 1.53125 1.1875 2.484375q1.046875 0.953125 2.625 0.953125q0.671875 0 1.34375 -0.234375q0.6875 -0.234375 1.09375 -0.59375q0.25 -0.1875 0.5 -0.1875q0.203125 0 0.40625 0.15625q0.25 0.21875 0.25 0.5q0 0.234375 -0.203125 0.421875q-0.625 0.53125 -1.578125 0.875q-0.9375 0.34375 -1.8125 0.34375q-1.5 0 -2.671875 -0.65625q-1.171875 -0.671875 -1.84375 -1.84375q-0.65625 -1.1875 -0.65625 -2.6875q0 -1.515625 0.625 -2.6875q0.625 -1.1875 1.734375 -1.84375q1.109375 -0.671875 2.53125 -0.671875zm0 1.28125q-1.421875 0 -2.359375 0.890625q-0.921875 0.875 -1.140625 2.296875l6.828125 0q-0.140625 -1.421875 -1.046875 -2.296875q-0.890625 -0.890625 -2.28125 -0.890625z" fill-rule="nonzero"></path><path fill="#efefef" d="m1.1630218 140.13663l0 0c0 -76.519714 62.03148 -138.5512 138.55118 -138.5512l0 0c36.746063 0 71.98709 14.597316 97.970474 40.580704c25.983383 25.983387 40.580704 61.224422 40.580704 97.97049l0 0c0 76.5197 -62.03148 138.55118 -138.55118 138.55118l0 0c-76.5197 0 -138.55118 -62.03148 -138.55118 -138.55118z" fill-rule="evenodd"></path><path stroke="#efefef" stroke-width="1.0" stroke-linejoin="round" stroke-linecap="butt" d="m1.1630218 140.13663l0 0c0 -76.519714 62.03148 -138.5512 138.55118 -138.5512l0 0c36.746063 0 71.98709 14.597316 97.970474 40.580704c25.983383 25.983387 40.580704 61.224422 40.580704 97.97049l0 0c0 76.5197 -62.03148 138.55118 -138.55118 138.55118l0 0c-76.5197 0 -138.55118 -62.03148 -138.55118 -138.55118z" fill-rule="evenodd"></path><path fill="#e06666" d="m139.77682 115.36037q10.234375 0 18.296875 4.546875q8.078125 4.546875 12.671875 12.671875q4.609375 8.125 4.609375 18.5l0 26.109375q0 10.234375 -4.546875 18.546875q-4.53125 8.328125 -12.59375 13.125q-8.0625 4.796875 -18.1875 4.796875q-9.84375 0 -17.531258 -3.71875q-7.671875 -3.703125 -12.921875 -10.359375q-1.15625 -1.28125 -1.15625 -2.9375q0 -1.921875 1.796875 -3.328125q1.28125 -0.890625 2.8125 -0.890625q1.15625 0 2.296875 0.5625q1.15625 0.578125 1.796875 1.484375q3.84375 4.859375 9.734375 7.546875q5.8906326 2.6875 13.312508 2.6875q7.15625 0 12.984375 -3.53125q5.828125 -3.515625 9.15625 -9.859375q3.328125 -6.328125 3.328125 -14.515625l0 -5.75q-3.84375 7.28125 -10.890625 11.453125q-7.03125 4.15625 -15.984375 4.15625q-9.984375 0 -17.859383 -4.546875q-7.875 -4.546875 -12.296875 -12.671875q-4.40625 -8.125 -4.40625 -18.359375q0 -10.375 4.609375 -18.5q4.609375 -8.125 12.734375 -12.671875q8.125008 -4.546875 18.234383 -4.546875zm0 62.34375q7.421875 0 13.3125 -3.390625q5.890625 -3.40625 9.21875 -9.484375q3.328125 -6.078125 3.328125 -13.75q0 -7.6875 -3.328125 -13.765625q-3.328125 -6.078125 -9.21875 -9.53125q-5.890625 -3.46875 -13.3125 -3.46875q-7.546875 0 -13.437508 3.46875q-5.890625 3.453125 -9.21875 9.53125q-3.328125 6.078125 -3.328125 13.765625q0 7.671875 3.328125 13.75q3.328125 6.078125 9.21875 9.484375q5.8906326 3.390625 13.437508 3.390625z" fill-rule="nonzero"></path><path fill="#efefef" d="m331.95273 139.43272l0 0c0 -76.49361 62.031464 -138.50394 138.55118 -138.50394l0 0c36.746063 0 71.98712 14.592338 97.97046 40.566864c25.983398 25.974525 40.58075 61.203545 40.58075 97.93707l0 0c0 76.49361 -62.031494 138.50395 -138.55121 138.50395l0 0c-76.519714 0 -138.55118 -62.010345 -138.55118 -138.50395z" fill-rule="evenodd"></path><path stroke="#efefef" stroke-width="1.0" stroke-linejoin="round" stroke-linecap="butt" d="m331.95273 139.43272l0 0c0 -76.49361 62.031464 -138.50394 138.55118 -138.50394l0 0c36.746063 0 71.98712 14.592338 97.97046 40.566864c25.983398 25.974525 40.58075 61.203545 40.58075 97.93707l0 0c0 76.49361 -62.031494 138.50395 -138.55121 138.50395l0 0c-76.519714 0 -138.55118 -62.010345 -138.55118 -138.50395z" fill-rule="evenodd"></path><path fill="#e06666" d="m470.56653 114.65648q9.984375 0 18.109375 4.671875q8.125 4.671875 12.796875 12.875q4.671875 8.1875 4.671875 18.171875l0 30.078125q0 2.046875 -1.40625 3.453125q-1.40625 1.40625 -3.578125 1.40625q-2.171875 0 -3.59375 -1.34375q-1.40625 -1.34375 -1.40625 -3.515625l0 -7.6875q-4.46875 6.140625 -11.390625 9.671875q-6.90625 3.515625 -15.21875 3.515625q-9.734375 0 -17.609375 -4.671875q-7.875 -4.671875 -12.421875 -12.796875q-4.53125 -8.125 -4.53125 -18.109375q0 -9.984375 4.671875 -18.171875q4.671875 -8.203125 12.796875 -12.875q8.125 -4.671875 18.109375 -4.671875zm0 62.34375q7.296875 0 13.1875 -3.453125q5.890625 -3.46875 9.28125 -9.546875q3.390625 -6.078125 3.390625 -13.625q0 -7.5625 -3.390625 -13.640625q-3.390625 -6.078125 -9.28125 -9.59375q-5.890625 -3.53125 -13.1875 -3.53125q-7.296875 0 -13.25 3.53125q-5.953125 3.515625 -9.34375 9.59375q-3.390625 6.078125 -3.390625 13.640625q0 7.546875 3.390625 13.625q3.390625 6.078125 9.34375 9.546875q5.953125 3.453125 13.25 3.453125z" fill-rule="nonzero"></path><path fill="#efefef" d="m1.8822929 468.64377l0 0c0 -76.519684 62.031475 -138.55118 138.55118 -138.55118l0 0c36.746063 0 71.98709 14.597321 97.97049 40.58072c25.983368 25.983368 40.58069 61.224396 40.58069 97.97046l0 0c0 76.519684 -62.031464 138.55118 -138.55118 138.55118l0 0c-76.5197 0 -138.55118 -62.031494 -138.55118 -138.55118z" fill-rule="evenodd"></path><path stroke="#efefef" stroke-width="1.0" stroke-linejoin="round" stroke-linecap="butt" d="m1.8822929 468.64377l0 0c0 -76.519684 62.031475 -138.55118 138.55118 -138.55118l0 0c36.746063 0 71.98709 14.597321 97.97049 40.58072c25.983368 25.983368 40.58069 61.224396 40.58069 97.97046l0 0c0 76.519684 -62.031464 138.55118 -138.55118 138.55118l0 0c-76.5197 0 -138.55118 -62.031494 -138.55118 -138.55118z" fill-rule="evenodd"></path><path fill="#e06666" d="m165.07547 443.74252q7.546875 0 13.375 3.59375q5.828125 3.578125 9.078125 10.171875q3.265625 6.578125 3.265625 15.28125l0 36.875q0 2.171875 -1.34375 3.5156555q-1.34375 1.34375 -3.515625 1.34375q-2.171875 0 -3.578125 -1.34375q-1.40625 -1.3437805 -1.40625 -3.5156555l0 -36.875q0 -9.078125 -4.671875 -14.390625q-4.671875 -5.3125 -12.234375 -5.3125q-8.0625 0 -13.0625 5.375q-4.984375 5.375 -4.859375 14.078125l0 0.25l0 36.875q0 2.171875 -1.34375 3.5156555q-1.34375 1.34375 -3.515625 1.34375q-2.171875 0 -3.578125 -1.34375q-1.40625 -1.3437805 -1.40625 -3.5156555l0 -36.875q0 -9.078125 -4.671875 -14.390625q-4.671875 -5.3125 -12.234375 -5.3125q-7.9375 0 -13.0625 5.25q-5.109375 5.25 -5.109375 13.4375l0 37.890625q0 2.171875 -1.34375 3.5156555q-1.34375 1.34375 -3.515625 1.34375q-2.171875 0 -3.59375 -1.34375q-1.40625 -1.3437805 -1.40625 -3.5156555l0 -60.171875q0 -2.171875 1.40625 -3.578125q1.421875 -1.40625 3.59375 -1.40625q2.171875 0 3.515625 1.40625q1.34375 1.40625 1.34375 3.578125l0 2.828125q3.578125 -4.09375 8.5 -6.328125q4.9375 -2.25 10.703125 -2.25q7.03125 0 12.65625 3.203125q5.640625 3.1875 8.96875 8.953125q3.71875 -5.765625 9.671875 -8.953125q5.953125 -3.203125 13.375 -3.203125z" fill-rule="nonzero"></path><path fill="#efefef" d="m330.024 467.93988l0 0c0 -76.49362 62.031494 -138.50394 138.55118 -138.50394l0 0c36.746063 0 71.98709 14.592346 97.97049 40.566864c25.983398 25.974518 40.58069 61.203552 40.58069 97.93707l0 0c0 76.49359 -62.031494 138.5039 -138.55118 138.5039l0 0c-76.519684 0 -138.55118 -62.010315 -138.55118 -138.5039z" fill-rule="evenodd"></path><path stroke="#efefef" stroke-width="1.0" stroke-linejoin="round" stroke-linecap="butt" d="m330.024 467.93988l0 0c0 -76.49362 62.031494 -138.50394 138.55118 -138.50394l0 0c36.746063 0 71.98709 14.592346 97.97049 40.566864c25.983398 25.974518 40.58069 61.203552 40.58069 97.93707l0 0c0 76.49359 -62.031494 138.5039 -138.55118 138.5039l0 0c-76.519684 0 -138.55118 -62.010315 -138.55118 -138.5039z" fill-rule="evenodd"></path><path fill="#e06666" d="m470.62292 443.16364q9.46875 0 16.765625 4.421875q7.296875 4.40625 11.328125 12.21875q4.03125 7.8125 4.03125 17.796875q0 2.046875 -1.28125 3.265625q-1.28125 1.203125 -3.328125 1.203125l-51.703125 0q1.015625 10.5 8.1875 17.03125q7.171875 6.53125 17.921875 6.53125q4.609375 0 9.28125 -1.59375q4.671875 -1.609375 7.484375 -4.046875q1.671875 -1.28125 3.453125 -1.28125q1.40625 0 2.8125 1.03125q1.671875 1.53125 1.671875 3.453125q0 1.671875 -1.40625 2.9375q-4.21875 3.59375 -10.75 5.96875q-6.53125 2.359375 -12.546875 2.359375q-10.234375 0 -18.3125 -4.546875q-8.0625 -4.546875 -12.609375 -12.671875q-4.53125 -8.125 -4.53125 -18.359375q0 -10.375 4.28125 -18.5q4.296875 -8.125 11.90625 -12.671875q7.609375 -4.546875 17.34375 -4.546875zm0 8.828125q-9.734375 0 -16.140625 6.015625q-6.390625 6.015625 -7.796875 15.875l46.84375 0q-1.015625 -9.859375 -7.171875 -15.875q-6.140625 -6.015625 -15.734375 -6.015625z" fill-rule="nonzero"></path></g></svg>

