<?xml version="1.0" standalone="yes"?>

<svg version="1.1" viewBox="0.0 0.0 672.0 672.0" fill="none" stroke="none" stroke-linecap="square" stroke-miterlimit="10" xmlns="http://www.w3.org/2000/svg" xmlns:xlink="http://www.w3.org/1999/xlink"><clipPath id="p.0"><path d="m0 0l672.0 0l0 672.0l-672.0 0l0 -672.0z" clip-rule="nonzero"></path></clipPath><g clip-path="url(#p.0)"><path fill="#ffffff" d="m0 0l672.0 0l0 672.0l-672.0 0z" fill-rule="evenodd"></path><path fill="#f3f3f3" d="m437.74802 30.755905l203.49606 0l0 610.48816l-203.49606 0z" fill-rule="evenodd"></path><path fill="#efefef" d="m30.755905 132.50394l0 0c0 -56.193886 45.554146 -101.74803 101.74803 -101.74803l0 0c26.98526 0 52.865265 10.719852 71.94672 29.801308c19.081467 19.081459 29.801315 44.96147 29.801315 71.946724l0 0c0 56.193893 -45.55414 101.74803 -101.74803 101.74803l0 0c-56.193886 0 -101.74803 -45.55414 -101.74803 -101.74803z" fill-rule="evenodd"></path><path stroke="#efefef" stroke-width="1.0" stroke-linejoin="round" stroke-linecap="butt" d="m30.755905 132.50394l0 0c0 -56.193886 45.554146 -101.74803 101.74803 -101.74803l0 0c26.98526 0 52.865265 10.719852 71.94672 29.801308c19.081467 19.081459 29.801315 44.96147 29.801315 71.946724l0 0c0 56.193893 -45.55414 101.74803 -101.74803 101.74803l0 0c-56.193886 0 -101.74803 -45.55414 -101.74803 -101.74803z" fill-rule="evenodd"></path><path fill="#e06666" d="m150.58199 130.49081q1.09375 0 1.796875 0.671875q0.703125 0.671875 0.703125 1.75l0 15.875q0 1.09375 -0.703125 1.796875q-5.953125 5.5 -15.6875 5.5q-6.78125 0 -12.484383 -3.453125q-5.6875 -3.453125 -9.046875 -9.34375q-3.359375 -5.890625 -3.359375 -12.875q0 -6.9062576 3.328125 -12.796883q3.328125 -5.890625 9.015625 -9.34375q5.7031326 -3.453125 12.546883 -3.453125q4.609375 0 8.390625 1.34375q3.78125 1.34375 7.296875 4.296875q0.703125 0.5 0.703125 1.46875q0 0.5 -0.265625 0.921875q-0.25 0.421875 -0.703125 0.609375q-0.125 0.453125 -0.578125 0.75q-0.4375 0.28125 -0.953125 0.28125q-0.890625 0 -1.59375 -0.640625q-2.5 -2.25 -5.453125 -3.265625q-2.9375 -1.03125 -6.84375 -1.03125q-5.375 0 -9.984383 2.859375q-4.609375 2.84375 -7.328125 7.640625q-2.71875 4.796875 -2.71875 10.359383q0 5.703125 2.6875 10.5q2.6875 4.796875 7.296875 7.625q4.6093826 2.8125 10.046883 2.8125q6.21875 0 11.53125 -3.65625l0 -12.796875l-9.984375 0q-1.09375 0 -1.796875 -0.640625q-0.703125 -0.640625 -0.703125 -1.59375q0 -0.96875 0.703125 -1.5625q0.703125 -0.609375 1.796875 -0.609375l12.34375 0z" fill-rule="nonzero"></path><path fill="#efefef" d="m234.25197 132.50394l0 0c0 -56.193886 45.554153 -101.74803 101.74803 -101.74803l0 0c26.98526 0 52.865265 10.719852 71.94672 29.801308c19.081451 19.081459 29.8013 44.96147 29.8013 71.946724l0 0c0 56.193893 -45.55414 101.74803 -101.74802 101.74803l0 0c-56.19388 0 -101.74803 -45.55414 -101.74803 -101.74803z" fill-rule="evenodd"></path><path stroke="#efefef" stroke-width="1.0" stroke-linejoin="round" stroke-linecap="butt" d="m234.25197 132.50394l0 0c0 -56.193886 45.554153 -101.74803 101.74803 -101.74803l0 0c26.98526 0 52.865265 10.719852 71.94672 29.801308c19.081451 19.081459 29.8013 44.96147 29.8013 71.946724l0 0c0 56.193893 -45.55414 101.74803 -101.74802 101.74803l0 0c-56.19388 0 -101.74803 -45.55414 -101.74803 -101.74803z" fill-rule="evenodd"></path><path fill="#e06666" d="m357.41028 151.92831q0.25 0.4375 0.25 1.015625q0 1.03125 -0.734375 1.765625q-0.734375 0.734375 -1.765625 0.734375q-1.65625 0 -2.359375 -1.53125l-4.28125 -10.375l-24.78125 0l-4.28125 10.375q-0.515625 1.53125 -2.3125 1.53125q-1.078125 0 -1.75 -0.734375q-0.671875 -0.734375 -0.671875 -1.765625q0 -0.640625 0.1875 -1.078125l18.8125 -44.671883q0.703125 -1.734375 2.4375 -1.734375q1.734375 0 2.375 1.734375l18.875 44.734383zm-10.625 -12.671875l-10.625 -25.671883l-10.625 25.671883l21.25 0z" fill-rule="nonzero"></path><path fill="#000000" fill-opacity="0.0" d="m641.2441 437.74802l0 203.49606l-610.48816 0l0 -203.49606z" fill-rule="evenodd"></path><path stroke="#ea9999" stroke-width="1.0" stroke-linejoin="round" stroke-linecap="butt" d="m641.2441 437.74802l0 203.49606l-610.48816 0l0 -203.49606z" fill-rule="evenodd"></path><path fill="#efefef" d="m30.755905 336.0l0 0c0 -56.19388 45.554146 -101.74803 101.74803 -101.74803l0 0c26.98526 0 52.865265 10.719849 71.94672 29.801315c19.081467 19.081451 29.801315 44.961456 29.801315 71.94672l0 0c0 56.19388 -45.55414 101.74802 -101.74803 101.74802l0 0c-56.193886 0 -101.74803 -45.55414 -101.74803 -101.74802z" fill-rule="evenodd"></path><path stroke="#efefef" stroke-width="1.0" stroke-linejoin="round" stroke-linecap="butt" d="m30.755905 336.0l0 0c0 -56.19388 45.554146 -101.74803 101.74803 -101.74803l0 0c26.98526 0 52.865265 10.719849 71.94672 29.801315c19.081467 19.081451 29.801315 44.961456 29.801315 71.94672l0 0c0 56.19388 -45.55414 101.74802 -101.74803 101.74802l0 0c-56.193886 0 -101.74803 -45.55414 -101.74803 -101.74802z" fill-rule="evenodd"></path><path fill="#e06666" d="m149.26624 354.14313q1.09375 0 1.796875 0.671875q0.703125 0.671875 0.703125 1.6875q0 1.03125 -0.703125 1.734375q-0.703125 0.703125 -1.796875 0.703125l-30.015633 0q-1.015625 0 -1.75 -0.734375q-0.734375 -0.734375 -0.734375 -1.765625l0 -44.984375q0 -1.09375 0.734375 -1.796875q0.734375 -0.703125 1.75 -0.703125l30.015633 0q1.09375 0 1.796875 0.703125q0.703125 0.703125 0.703125 1.734375q0 1.015625 -0.703125 1.6875q-0.703125 0.671875 -1.796875 0.671875l-27.515633 0l0 17.671875l20.031258 0q1.09375 0 1.796875 0.703125q0.703125 0.703125 0.703125 1.71875q0 1.03125 -0.734375 1.734375q-0.734375 0.703125 -1.765625 0.703125l-20.031258 0l0 17.859375l27.515633 0z" fill-rule="nonzero"></path><path fill="#e06666" d="m30.755905 539.49603l0 0c0 -56.193848 45.554146 -101.74802 101.74803 -101.74802l0 0c26.98526 0 52.865265 10.719879 71.94672 29.80133c19.081467 19.081451 29.801315 44.961456 29.801315 71.946686l0 0c0 56.19391 -45.55414 101.74805 -101.74803 101.74805l0 0c-56.193886 0 -101.74803 -45.55414 -101.74803 -101.74805z" fill-rule="evenodd"></path><path stroke="#efefef" stroke-width="1.0" stroke-linejoin="round" stroke-linecap="butt" d="m30.755905 539.49603l0 0c0 -56.193848 45.554146 -101.74802 101.74803 -101.74802l0 0c26.98526 0 52.865265 10.719879 71.94672 29.80133c19.081467 19.081451 29.801315 44.961456 29.801315 71.946686l0 0c0 56.19391 -45.55414 101.74805 -101.74803 101.74805l0 0c-56.193886 0 -101.74803 -45.55414 -101.74803 -101.74805z" fill-rule="evenodd"></path><path fill="#efefef" d="m148.66985 557.70166q1.078125 0 1.78125 0.671875q0.703125 0.671875 0.703125 1.6875q0 1.03125 -0.703125 1.703125q-0.703125 0.671875 -1.78125 0.671875l-27.53125 0q-1.015625 0 -1.75 -0.734375q-0.734375 -0.734375 -0.734375 -1.765625l0 -44.984375q0 -1.03125 0.734375 -1.765625q0.734375 -0.734375 1.75 -0.734375q1.09375 0 1.796875 0.703125q0.703125 0.703125 0.703125 1.796875l0 42.75l25.03125 0z" fill-rule="nonzero"></path><path fill="#e06666" d="m234.25197 539.49603l0 0c0 -56.193848 45.554153 -101.74802 101.74803 -101.74802l0 0c26.98526 0 52.865265 10.719879 71.94672 29.80133c19.081451 19.081451 29.8013 44.961456 29.8013 71.946686l0 0c0 56.19391 -45.55414 101.74805 -101.74802 101.74805l0 0c-56.19388 0 -101.74803 -45.55414 -101.74803 -101.74805z" fill-rule="evenodd"></path><path stroke="#efefef" stroke-width="1.0" stroke-linejoin="round" stroke-linecap="butt" d="m234.25197 539.49603l0 0c0 -56.193848 45.554153 -101.74802 101.74803 -101.74802l0 0c26.98526 0 52.865265 10.719879 71.94672 29.80133c19.081451 19.081451 29.8013 44.961456 29.8013 71.946686l0 0c0 56.19391 -45.55414 101.74805 -101.74802 101.74805l0 0c-56.19388 0 -101.74803 -45.55414 -101.74803 -101.74805z" fill-rule="evenodd"></path><path fill="#efefef" d="m336.02805 511.81107q7.234375 0 13.09375 3.3280945q5.859375 3.328125 9.15625 9.15625q3.296875 5.828125 3.296875 13.109375q0 7.296875 -3.296875 13.15625q-3.296875 5.859375 -9.15625 9.1875q-5.859375 3.328125 -13.09375 3.328125q-7.296875 0 -13.125 -3.328125q-5.8125 -3.328125 -9.109375 -9.1875q-3.296875 -5.859375 -3.296875 -13.15625q0 -7.28125 3.296875 -13.109375q3.296875 -5.828125 9.109375 -9.15625q5.828125 -3.3280945 13.125 -3.3280945zm0 4.7343445q-5.890625 0 -10.59375 2.75q-4.703125 2.75 -7.390625 7.53125q-2.6875 4.765625 -2.6875 10.578125q0 5.890625 2.6875 10.671875q2.6875 4.765625 7.390625 7.515625q4.703125 2.75 10.59375 2.75q5.828125 0 10.53125 -2.75q4.703125 -2.75 7.390625 -7.515625q2.6875 -4.78125 2.6875 -10.671875q0 -5.8125 -2.6875 -10.578125q-2.6875 -4.78125 -7.390625 -7.53125q-4.703125 -2.75 -10.53125 -2.75z" fill-rule="nonzero"></path><path fill="#efefef" d="m234.25197 336.0l0 0c0 -56.19388 45.554153 -101.74803 101.74803 -101.74803l0 0c26.98526 0 52.865265 10.719849 71.94672 29.801315c19.081451 19.081451 29.8013 44.961456 29.8013 71.94672l0 0c0 56.19388 -45.55414 101.74802 -101.74802 101.74802l0 0c-56.19388 0 -101.74803 -45.55414 -101.74803 -101.74802z" fill-rule="evenodd"></path><path stroke="#efefef" stroke-width="1.0" stroke-linejoin="round" stroke-linecap="butt" d="m234.25197 336.0l0 0c0 -56.19388 45.554153 -101.74803 101.74803 -101.74803l0 0c26.98526 0 52.865265 10.719849 71.94672 29.801315c19.081451 19.081451 29.8013 44.961456 29.8013 71.94672l0 0c0 56.19388 -45.55414 101.74802 -101.74802 101.74802l0 0c-56.19388 0 -101.74803 -45.55414 -101.74803 -101.74802z" fill-rule="evenodd"></path><path fill="#e06666" d="m358.5612 308.95563q1.015625 0 1.71875 0.703125q0.71875 0.703125 0.71875 1.796875l0 44.984375q0 1.03125 -0.71875 1.765625q-0.703125 0.734375 -1.71875 0.734375q-1.09375 0 -1.828125 -0.734375q-0.734375 -0.734375 -0.734375 -1.765625l0 -36.21875l-17.796875 36.34375q-0.765625 1.21875 -2.171875 1.21875q-1.59375 0 -2.296875 -1.53125l-17.734375 -35.453125l0 35.640625q0 1.03125 -0.703125 1.765625q-0.703125 0.734375 -1.796875 0.734375q-1.015625 0 -1.75 -0.734375q-0.734375 -0.734375 -0.734375 -1.765625l0 -44.984375q0 -1.09375 0.734375 -1.796875q0.734375 -0.703125 1.75 -0.703125q1.484375 0 2.25 1.28125l20.46875 40.703125l20.109375 -40.703125q0.765625 -1.28125 2.234375 -1.28125z" fill-rule="nonzero"></path><path fill="#e06666" d="m437.74802 539.49603l0 0c0 -56.193848 45.55417 -101.74802 101.74802 -101.74802l0 0c26.98529 0 52.865295 10.719879 71.94678 29.80133c19.08142 19.081451 29.80127 44.961456 29.80127 71.946686l0 0c0 56.19391 -45.55414 101.74805 -101.74805 101.74805l0 0c-56.193848 0 -101.74802 -45.55414 -101.74802 -101.74805z" fill-rule="evenodd"></path><path stroke="#efefef" stroke-width="1.0" stroke-linejoin="round" stroke-linecap="butt" d="m437.74802 539.49603l0 0c0 -56.193848 45.55417 -101.74802 101.74802 -101.74802l0 0c26.98529 0 52.865295 10.719879 71.94678 29.80133c19.08142 19.081451 29.80127 44.961456 29.80127 71.946686l0 0c0 56.19391 -45.55414 101.74805 -101.74805 101.74805l0 0c-56.193848 0 -101.74802 -45.55414 -101.74802 -101.74805z" fill-rule="evenodd"></path><path fill="#efefef" d="m557.5741 537.4829q1.09375 0 1.796875 0.671875q0.703125 0.671875 0.703125 1.75l0 15.875q0 1.09375 -0.703125 1.796875q-5.953125 5.5 -15.6875 5.5q-6.78125 0 -12.484375 -3.453125q-5.6875 -3.453125 -9.046875 -9.34375q-3.359375 -5.890625 -3.359375 -12.875q0 -6.90625 3.328125 -12.796875q3.328125 -5.890625 9.015625 -9.34375q5.703125 -3.4530945 12.546875 -3.4530945q4.609375 0 8.390625 1.3437195q3.78125 1.34375 7.296875 4.296875q0.703125 0.5 0.703125 1.46875q0 0.5 -0.265625 0.921875q-0.25 0.421875 -0.703125 0.609375q-0.125 0.453125 -0.578125 0.75q-0.4375 0.28125 -0.953125 0.28125q-0.890625 0 -1.59375 -0.640625q-2.5 -2.25 -5.453125 -3.265625q-2.9375 -1.03125 -6.84375 -1.03125q-5.375 0 -9.984375 2.859375q-4.609375 2.84375 -7.328125 7.640625q-2.71875 4.796875 -2.71875 10.359375q0 5.703125 2.6875 10.5q2.6875 4.796875 7.296875 7.625q4.609375 2.8125 10.046875 2.8125q6.21875 0 11.53125 -3.65625l0 -12.796875l-9.984375 0q-1.09375 0 -1.796875 -0.640625q-0.703125 -0.640625 -0.703125 -1.59375q0 -0.96875 0.703125 -1.5625q0.703125 -0.609375 1.796875 -0.609375l12.34375 0z" fill-rule="nonzero"></path><path fill="#ffffff" d="m437.74802 132.50394l0 0c0 -56.193886 45.55417 -101.74803 101.74802 -101.74803l0 0c26.98529 0 52.865295 10.719852 71.94678 29.801308c19.08142 19.081459 29.80127 44.96147 29.80127 71.946724l0 0c0 56.193893 -45.55414 101.74803 -101.74805 101.74803l0 0c-56.193848 0 -101.74802 -45.55414 -101.74802 -101.74803z" fill-rule="evenodd"></path><path stroke="#ea9999" stroke-width="1.0" stroke-linejoin="round" stroke-linecap="butt" d="m437.74802 132.50394l0 0c0 -56.193886 45.55417 -101.74803 101.74802 -101.74803l0 0c26.98529 0 52.865295 10.719852 71.94678 29.801308c19.08142 19.081459 29.80127 44.96147 29.80127 71.946724l0 0c0 56.193893 -45.55414 101.74803 -101.74805 101.74803l0 0c-56.193848 0 -101.74802 -45.55414 -101.74802 -101.74803z" fill-rule="evenodd"></path><path fill="#ffffff" d="m437.74802 336.0l0 0c0 -56.19388 45.55417 -101.74803 101.74802 -101.74803l0 0c26.98529 0 52.865295 10.719849 71.94678 29.801315c19.08142 19.081451 29.80127 44.961456 29.80127 71.94672l0 0c0 56.19388 -45.55414 101.74802 -101.74805 101.74802l0 0c-56.193848 0 -101.74802 -45.55414 -101.74802 -101.74802z" fill-rule="evenodd"></path><path stroke="#ea9999" stroke-width="1.0" stroke-linejoin="round" stroke-linecap="butt" d="m437.74802 336.0l0 0c0 -56.19388 45.55417 -101.74803 101.74802 -101.74803l0 0c26.98529 0 52.865295 10.719849 71.94678 29.801315c19.08142 19.081451 29.80127 44.961456 29.80127 71.94672l0 0c0 56.19388 -45.55414 101.74802 -101.74805 101.74802l0 0c-56.193848 0 -101.74802 -45.55414 -101.74802 -101.74802z" fill-rule="evenodd"></path></g></svg>

