<?xml version="1.0" standalone="yes"?>

<svg version="1.1" viewBox="0.0 0.0 720.0 720.0" fill="none" stroke="none" stroke-linecap="square" stroke-miterlimit="10" xmlns="http://www.w3.org/2000/svg" xmlns:xlink="http://www.w3.org/1999/xlink"><clipPath id="p.0"><path d="m0 0l720.0 0l0 720.0l-720.0 0l0 -720.0z" clip-rule="nonzero"></path></clipPath><g clip-path="url(#p.0)"><path fill="#7fffd4" d="m0 0l720.0 0l0 720.0l-720.0 0z" fill-rule="evenodd"></path><g filter="url(#shadowFilter-p.1)"><use xlink:href="#p.1" transform="matrix(1.0 0.0 0.0 1.0 6.000171090674213 3.6052662606627295)"></use></g><defs><filter id="shadowFilter-p.1" filterUnits="userSpaceOnUse"><feGaussianBlur in="SourceAlpha" stdDeviation="0.0" result="blur"></feGaussianBlur><feComponentTransfer in="blur" color-interpolation-filters="sRGB"><feFuncR type="linear" slope="0" intercept="0.4"></feFuncR><feFuncG type="linear" slope="0" intercept="0.4"></feFuncG><feFuncB type="linear" slope="0" intercept="0.4"></feFuncB><feFuncA type="linear" slope="0.98" intercept="0"></feFuncA></feComponentTransfer></filter></defs><g id="p.1"><path fill="#000000" fill-opacity="0.0" d="m-0.005251706 267.9449l720.0 0l0 72.75589l-720.0 0z" fill-rule="evenodd"></path><path fill="#f3f3f3" d="m187.25272 306.5124q0 -2.9375 1.921875 -4.796875q1.921875 -1.859375 4.734375 -1.859375q2.828125 0 4.671875 1.859375q1.859375 1.859375 1.859375 4.796875l0 86.65625q0 2.9375 -1.859375 4.796875q-1.84375 1.859375 -4.671875 1.859375q-1.40625 0 -2.875 -0.578125q-1.46875 -0.578125 -2.234375 -1.71875l-55.8125 -74.25l0 69.890625q0 2.8125 -1.859375 4.734375q-1.859375 1.921875 -4.796875 1.921875q-2.8125 0 -4.671875 -1.859375q-1.859375 -1.859375 -1.859375 -4.796875l0 -86.65625q0 -2.9375 1.859375 -4.796875q1.859375 -1.859375 4.671875 -1.859375q1.40625 0 2.8125 0.703125q1.40625 0.703125 2.3125 1.734375l55.796875 74.234375l0 -70.015625zm69.255646 22.78125q10.109375 0 18.109375 4.546875q8.0 4.546875 12.546875 12.609375q4.546875 8.0625 4.546875 18.4375q0 10.234375 -4.484375 18.296875q-4.484375 8.0625 -12.484375 12.609375q-8.0 4.546875 -18.234375 4.546875q-10.234375 0 -18.3125 -4.546875q-8.0625 -4.546875 -12.546875 -12.609375q-4.46875 -8.0625 -4.46875 -18.296875q0 -10.375 4.46875 -18.4375q4.484375 -8.0625 12.546875 -12.609375q8.078125 -4.546875 18.3125 -4.546875zm0 11.515625q-6.53125 0 -11.71875 3.078125q-5.171875 3.078125 -8.125 8.578125q-2.9375 5.5 -2.9375 12.421875q0 6.90625 2.9375 12.34375q2.953125 5.4375 8.125 8.515625q5.1875 3.0625 11.71875 3.0625q6.53125 0 11.703125 -3.0625q5.1875 -3.078125 8.0625 -8.515625q2.890625 -5.4375 2.890625 -12.34375q0 -6.921875 -2.890625 -12.421875q-2.875 -5.5 -8.0625 -8.578125q-5.171875 -3.078125 -11.703125 -3.078125z" fill-rule="nonzero"></path><path fill="#ff9898" d="m376.18964 299.85614q2.6875 0 4.40625 1.734375q1.734375 1.71875 1.734375 4.40625q0 2.6875 -1.734375 4.421875q-1.71875 1.71875 -4.40625 1.71875l-27.515625 0l0 81.03125q0 2.8125 -1.921875 4.734375q-1.921875 1.921875 -4.734375 1.921875q-2.828125 0 -4.75 -1.921875q-1.90625 -1.921875 -1.90625 -4.734375l0 -81.03125l-27.65625 0q-2.6875 0 -4.421875 -1.71875q-1.71875 -1.734375 -1.71875 -4.421875q0 -2.6875 1.71875 -4.40625q1.734375 -1.734375 4.421875 -1.734375l68.484375 0zm51.326782 29.4375q9.859375 0 17.859375 4.671875q8.0 4.671875 12.671875 12.8125q4.671875 8.125 4.671875 18.109375l0 28.53125q0 2.828125 -1.859375 4.6875q-1.859375 1.84375 -4.671875 1.84375q-2.8125 0 -4.671875 -1.84375q-1.859375 -1.859375 -1.859375 -4.6875l0 -4.734375q-4.484375 5.515625 -10.890625 8.59375q-6.390625 3.0625 -13.8125 3.0625q-9.21875 0 -16.703125 -4.609375q-7.484375 -4.609375 -11.78125 -12.734375q-4.28125 -8.125 -4.28125 -18.109375q0 -9.984375 4.609375 -18.109375q4.609375 -8.140625 12.734375 -12.8125q8.125 -4.671875 17.984375 -4.671875zm0 59.515625q6.390625 0 11.578125 -3.125q5.1875 -3.140625 8.125 -8.578125q2.953125 -5.4375 2.953125 -12.21875q0 -6.796875 -2.953125 -12.296875q-2.9375 -5.5 -8.125 -8.640625q-5.1875 -3.140625 -11.578125 -3.140625q-6.40625 0 -11.59375 3.140625q-5.171875 3.140625 -8.1875 8.640625q-3.0 5.5 -3.0 12.296875q0 6.78125 3.0 12.21875q3.015625 5.4375 8.1875 8.578125q5.1875 3.125 11.59375 3.125zm79.22812 -59.515625q8.3280945 0 14.9062195 2.6875q6.59375 2.6875 10.4375 7.421875q1.671875 2.046875 1.671875 4.109375q0 2.171875 -2.1875 3.953125q-1.40625 1.03125 -3.578125 1.03125q-3.328125 0 -6.015625 -2.4375q-3.203125 -2.9375 -6.796875 -4.15625q-3.5780945 -1.21875 -8.6874695 -1.21875q-5.890625 0 -9.671875 1.984375q-3.765625 1.984375 -3.765625 5.578125q0 2.546875 1.265625 4.28125q1.28125 1.734375 4.859375 3.203125q3.59375 1.46875 10.375 2.875q13.9530945 2.8125 19.78122 7.8125q5.828125 4.984375 5.828125 12.921875q0 5.890625 -3.203125 10.703125q-3.203125 4.796875 -9.40625 7.546875q-6.203125 2.75 -14.9218445 2.75q-8.703125 0 -16.390625 -2.6875q-7.671875 -2.6875 -12.015625 -7.046875q-1.671875 -1.65625 -1.671875 -3.96875q0 -3.0625 2.5625 -4.984375q2.4375 -1.796875 4.484375 -1.796875q2.5625 0 4.859375 2.3125q2.4375 2.6875 7.296875 4.671875q4.859375 1.96875 10.375 1.96875q7.2968445 0 11.3280945 -2.421875q4.03125 -2.4375 4.03125 -6.53125q0 -3.96875 -3.96875 -6.59375q-3.96875 -2.625 -13.4374695 -4.40625q-24.578125 -4.75 -24.578125 -20.234375q0 -6.265625 3.703125 -10.609375q3.71875 -4.359375 9.734375 -6.53125q6.015625 -2.1875 12.796875 -2.1875zm97.80087 61.3125q1.40625 1.53125 1.40625 3.84375q0 2.8125 -2.3125 4.734375q-1.921875 1.53125 -4.09375 1.53125q-2.8125 0 -4.609375 -2.296875l-24.3125 -30.078125l-6.40625 5.625l0 19.59375q0 2.8125 -1.734375 4.546875q-1.71875 1.71875 -4.53125 1.71875q-2.828125 0 -4.5625 -1.71875q-1.71875 -1.734375 -1.71875 -4.546875l0 -87.4375q0 -2.8125 1.71875 -4.53125q1.734375 -1.734375 4.5625 -1.734375q2.8125 0 4.53125 1.734375q1.734375 1.71875 1.734375 4.53125l0 52.109375l31.109375 -27.78125q1.65625 -1.671875 3.96875 -1.671875q2.6875 0 4.34375 2.0625q1.671875 1.65625 1.671875 3.953125q0 2.6875 -2.046875 4.359375l-23.5625 20.984375l24.84375 30.46875z" fill-rule="nonzero"></path></g></g></svg>

