<?xml version="1.0" standalone="yes"?>

<svg version="1.1" viewBox="0.0 0.0 672.0 672.0" fill="none" stroke="none" stroke-linecap="square" stroke-miterlimit="10" xmlns="http://www.w3.org/2000/svg" xmlns:xlink="http://www.w3.org/1999/xlink"><clipPath id="p.0"><path d="m0 0l672.0 0l0 672.0l-672.0 0l0 -672.0z" clip-rule="nonzero"></path></clipPath><g clip-path="url(#p.0)"><path fill="#9fc5e8" d="m0 0l672.0 0l0 672.0l-672.0 0z" fill-rule="evenodd"></path><path fill="#999999" d="m184.0 243.96982l368.0 0l0 198.4483l-184.0 49.61206l-184.0 -49.61206z" fill-rule="evenodd"></path><path fill="#d9d9d9" d="m168.0 227.96982l368.0 0l0 198.4483l-184.0 49.61206l-184.0 -49.61206z" fill-rule="evenodd"></path><path fill="#f3f3f3" d="m152.0 211.96982l368.0 0l0 198.4483l-184.0 49.61206l-184.0 -49.61206z" fill-rule="evenodd"></path><path fill="#ea9999" d="m198.99329 247.75958q3.359375 0 5.3125 0.875q1.96875 0.875 1.96875 2.484375q0 0.46875 -0.078125 0.71875q-0.3125 1.109375 -1.0 1.515625q-0.671875 0.40625 -1.875 0.40625q-0.71875 0 -2.484375 -0.171875q-0.640625 -0.078125 -1.921875 -0.078125q-6.0 0 -9.796875 3.203125q-3.796875 3.203125 -3.796875 8.328125l0 23.90625q0 1.453125 -0.796875 2.25q-0.796875 0.796875 -2.25 0.796875q-1.4375 0 -2.234375 -0.796875q-0.796875 -0.796875 -0.796875 -2.25l0 -37.671875q0 -1.4375 0.796875 -2.234375q0.796875 -0.8125 2.234375 -0.8125q1.453125 0 2.25 0.8125q0.796875 0.796875 0.796875 2.234375l0 3.515625q2.3125 -3.359375 5.90625 -5.1875q3.609375 -1.84375 7.765625 -1.84375zm35.530594 0.078125q5.921875 0 10.46875 2.765625q4.5625 2.75 7.078125 7.640625q2.53125 4.875 2.53125 11.109375q0 1.28125 -0.8125 2.046875q-0.796875 0.75 -2.0625 0.75l-32.328125 0q0.640625 6.5625 5.109375 10.640625q4.484375 4.078125 11.21875 4.078125q2.875 0 5.796875 -1.0q2.921875 -1.0 4.671875 -2.515625q1.046875 -0.796875 2.171875 -0.796875q0.875 0 1.75 0.640625q1.046875 0.953125 1.046875 2.15625q0 1.046875 -0.890625 1.84375q-2.640625 2.234375 -6.71875 3.71875q-4.078125 1.484375 -7.828125 1.484375q-6.40625 0 -11.453125 -2.84375q-5.03125 -2.84375 -7.875 -7.921875q-2.84375 -5.078125 -2.84375 -11.484375q0 -6.46875 2.671875 -11.546875q2.6875 -5.09375 7.453125 -7.921875q4.765625 -2.84375 10.84375 -2.84375zm0 5.515625q-6.078125 0 -10.078125 3.765625q-4.0 3.75 -4.890625 9.921875l29.28125 0q-0.640625 -6.171875 -4.484375 -9.921875q-3.828125 -3.765625 -9.828125 -3.765625zm50.4012 -5.515625q6.234375 0 11.3125 2.921875q5.078125 2.921875 8.0 8.046875q2.921875 5.109375 2.921875 11.34375l0 18.796875q0 1.28125 -0.890625 2.171875q-0.875 0.875 -2.234375 0.875q-1.359375 0 -2.234375 -0.84375q-0.875 -0.84375 -0.875 -2.203125l0 -4.796875q-2.8125 3.84375 -7.125 6.046875q-4.3125 2.203125 -9.515625 2.203125q-6.078125 0 -11.0 -2.921875q-4.921875 -2.921875 -7.765625 -8.0q-2.84375 -5.078125 -2.84375 -11.328125q0 -6.234375 2.921875 -11.34375q2.921875 -5.125 8.0 -8.046875q5.078125 -2.921875 11.328125 -2.921875zm0 38.953125q4.5625 0 8.234375 -2.15625q3.6875 -2.15625 5.796875 -5.953125q2.125 -3.8125 2.125 -8.53125q0 -4.71875 -2.125 -8.515625q-2.109375 -3.796875 -5.796875 -6.0q-3.671875 -2.203125 -8.234375 -2.203125q-4.5625 0 -8.28125 2.203125q-3.71875 2.203125 -5.84375 6.0q-2.125 3.796875 -2.125 8.515625q0 4.71875 2.125 8.53125q2.125 3.796875 5.84375 5.953125q3.71875 2.15625 8.28125 2.15625zm76.31619 -36.234375q0.078125 0.234375 0.078125 0.71875l0 18.796875q0 6.234375 -2.921875 11.359375q-2.921875 5.125 -8.0 8.046875q-5.078125 2.921875 -11.3125 2.921875q-6.25 0 -11.328125 -2.921875q-5.078125 -2.921875 -8.0 -8.046875q-2.921875 -5.125 -2.921875 -11.359375q0 -6.234375 2.84375 -11.3125q2.84375 -5.078125 7.765625 -8.0q4.921875 -2.921875 11.0 -2.921875q5.203125 0 9.515625 2.203125q4.3125 2.1875 7.125 6.03125l0 -23.4375q0 -1.359375 0.875 -2.234375q0.875 -0.890625 2.234375 -0.890625q1.359375 0 2.203125 0.890625q0.84375 0.875 0.84375 2.234375l0 17.921875zm-22.15625 36.234375q4.5625 0 8.234375 -2.1875q3.6875 -2.203125 5.796875 -6.0q2.125 -3.8125 2.125 -8.53125q0 -1.359375 -0.078125 -2.0q-0.078125 -0.15625 -0.078125 -0.390625q-0.8125 -6.25 -5.25 -10.25q-4.4375 -4.0 -10.75 -4.0q-4.5625 0 -8.28125 2.171875q-3.71875 2.15625 -5.84375 5.953125q-2.125 3.796875 -2.125 8.515625q0 4.71875 2.125 8.53125q2.125 3.796875 5.84375 6.0q3.71875 2.1875 8.28125 2.1875zm37.91931 -35.4375q0 -1.359375 0.875 -2.234375q0.875 -0.890625 2.234375 -0.890625q1.359375 0 2.203125 0.890625q0.84375 0.875 0.84375 2.234375l0 37.515625q0 1.359375 -0.84375 2.25q-0.84375 0.875 -2.203125 0.875q-1.359375 0 -2.234375 -0.875q-0.875 -0.890625 -0.875 -2.25l0 -37.515625zm3.109375 -20.15625q1.765625 0 3.046875 1.203125q1.28125 1.1875 1.28125 3.109375q0 1.84375 -1.28125 3.125q-1.28125 1.28125 -3.125 1.28125q-1.84375 0 -3.078125 -1.28125q-1.234375 -1.28125 -1.234375 -3.125q0 -1.921875 1.265625 -3.109375q1.28125 -1.203125 3.125 -1.203125zm39.44812 16.5625q5.671875 0 10.1875 2.40625q4.53125 2.390625 7.09375 7.0q2.5625 4.59375 2.5625 10.984375l0 20.796875q0 1.28125 -0.890625 2.171875q-0.875 0.875 -2.15625 0.875q-1.359375 0 -2.25 -0.875q-0.875 -0.890625 -0.875 -2.171875l0 -20.796875q0 -7.109375 -3.953125 -10.828125q-3.953125 -3.734375 -10.359375 -3.734375q-3.921875 0 -7.078125 1.53125q-3.15625 1.515625 -5.0 4.203125q-1.84375 2.671875 -1.84375 5.953125l0 23.671875q0 1.359375 -0.84375 2.203125q-0.828125 0.84375 -2.203125 0.84375q-1.359375 0 -2.234375 -0.84375q-0.875 -0.84375 -0.875 -2.203125l0 -37.59375q0 -1.359375 0.875 -2.234375q0.875 -0.890625 2.234375 -0.890625q1.375 0 2.203125 0.890625q0.84375 0.875 0.84375 2.234375l0 2.71875q2.640625 -2.953125 6.390625 -4.625q3.765625 -1.6875 8.171875 -1.6875zm53.363068 0.078125q6.390625 0 11.421875 2.84375q5.046875 2.828125 7.921875 7.921875q2.890625 5.078125 2.890625 11.546875l0 16.328125q0 6.390625 -2.84375 11.59375q-2.828125 5.203125 -7.875 8.203125q-5.046875 3.0 -11.359375 3.0q-6.15625 0 -10.96875 -2.328125q-4.796875 -2.3125 -8.078125 -6.46875q-0.71875 -0.796875 -0.71875 -1.84375q0 -1.203125 1.125 -2.078125q0.796875 -0.5625 1.765625 -0.5625q0.71875 0 1.4375 0.359375q0.71875 0.359375 1.109375 0.921875q2.40625 3.03125 6.078125 4.71875q3.6875 1.6875 8.328125 1.6875q4.484375 0 8.125 -2.203125q3.640625 -2.203125 5.71875 -6.171875q2.078125 -3.953125 2.078125 -9.078125l0 -3.59375q-2.40625 4.5625 -6.8125 7.171875q-4.390625 2.59375 -9.984375 2.59375q-6.25 0 -11.171875 -2.84375q-4.90625 -2.84375 -7.671875 -7.921875q-2.765625 -5.078125 -2.765625 -11.484375q0 -6.46875 2.875 -11.546875q2.890625 -5.09375 7.96875 -7.921875q5.078125 -2.84375 11.40625 -2.84375zm0 38.953125q4.640625 0 8.3125 -2.109375q3.6875 -2.125 5.765625 -5.921875q2.078125 -3.8125 2.078125 -8.609375q0 -4.796875 -2.078125 -8.59375q-2.078125 -3.796875 -5.765625 -5.953125q-3.671875 -2.171875 -8.3125 -2.171875q-4.71875 0 -8.40625 2.171875q-3.671875 2.15625 -5.765625 5.953125q-2.078125 3.796875 -2.078125 8.59375q0 4.796875 2.078125 8.609375q2.09375 3.796875 5.765625 5.921875q3.6875 2.109375 8.40625 2.109375z" fill-rule="nonzero"></path><path fill="#ea9999" d="m281.1138 328.55646q0 -1.359375 0.875 -2.203125q0.890625 -0.84375 2.171875 -0.84375q1.359375 0 2.203125 0.84375q0.84375 0.84375 0.84375 2.203125l0 45.59375q0 3.4375 1.390625 5.609375q1.40625 2.15625 3.5625 2.15625l2.0 0q1.203125 0 1.921875 0.84375q0.71875 0.828125 0.71875 2.1875q0 1.359375 -1.0 2.203125q-1.0 0.84375 -2.59375 0.84375l-1.046875 0q-4.875 0 -7.96875 -3.875q-3.078125 -3.890625 -3.078125 -9.96875l0 -45.59375zm25.450592 18.796875q0 -1.359375 0.875 -2.234375q0.875 -0.890625 2.234375 -0.890625q1.359375 0 2.203125 0.890625q0.84375 0.875 0.84375 2.234375l0 37.515625q0 1.359375 -0.84375 2.25q-0.84375 0.875 -2.203125 0.875q-1.359375 0 -2.234375 -0.875q-0.875 -0.890625 -0.875 -2.25l0 -37.515625zm3.109375 -20.15625q1.765625 0 3.046875 1.203125q1.28125 1.1875 1.28125 3.109375q0 1.84375 -1.28125 3.125q-1.28125 1.28125 -3.125 1.28125q-1.84375 0 -3.078125 -1.28125q-1.234375 -1.28125 -1.234375 -3.125q0 -1.921875 1.265625 -3.109375q1.28125 -1.203125 3.125 -1.203125zm33.838745 16.640625q5.28125 0 9.203125 1.796875q3.921875 1.796875 6.328125 5.0q0.640625 1.046875 0.640625 1.84375q0 1.359375 -1.28125 2.15625q-0.5625 0.40625 -1.515625 0.40625q-1.6875 0 -2.8125 -1.203125q-3.921875 -4.484375 -10.71875 -4.484375q-4.390625 0 -7.03125 1.796875q-2.640625 1.796875 -2.640625 4.53125q0 2.875 2.46875 4.59375q2.484375 1.71875 8.8125 2.765625q8.546875 1.4375 12.234375 4.671875q3.6875 3.234375 3.6875 8.046875q0 3.671875 -2.203125 6.5625q-2.203125 2.875 -6.125 4.484375q-3.921875 1.59375 -8.875 1.59375q-4.96875 0 -9.53125 -1.671875q-4.546875 -1.6875 -7.359375 -4.734375q-0.796875 -0.953125 -0.796875 -1.84375q0 -1.359375 1.28125 -2.390625q0.96875 -0.71875 2.0 -0.71875q1.359375 0 2.328125 1.109375q1.90625 2.25 5.0625 3.453125q3.171875 1.1875 7.015625 1.1875q5.59375 0 8.390625 -1.921875q2.8125 -1.921875 2.890625 -5.03125q0 -2.890625 -2.8125 -4.796875q-2.796875 -1.921875 -8.875 -2.890625q-7.84375 -1.28125 -11.71875 -4.4375q-3.875 -3.15625 -3.875 -7.640625q0 -5.84375 4.515625 -9.03125q4.515625 -3.203125 11.3125 -3.203125zm47.29184 38.0q1.28125 0 2.078125 0.875q0.796875 0.875 0.796875 2.234375q0 1.28125 -0.96875 2.171875q-0.953125 0.875 -2.390625 0.875l-1.6875 0q-4.234375 0 -7.59375 -2.03125q-3.359375 -2.046875 -5.25 -5.53125q-1.875 -3.484375 -1.875 -7.875l0 -21.359375l-5.1875 0q-1.28125 0 -2.046875 -0.75q-0.765625 -0.765625 -0.765625 -1.890625q0 -1.203125 0.765625 -1.953125q0.765625 -0.765625 2.046875 -0.765625l5.1875 0l0 -12.40625q0 -1.359375 0.84375 -2.234375q0.84375 -0.890625 2.203125 -0.890625q1.359375 0 2.234375 0.890625q0.890625 0.875 0.890625 2.234375l0 12.40625l9.03125 0q1.28125 0 2.03125 0.765625q0.765625 0.75 0.765625 1.953125q0 1.125 -0.765625 1.890625q-0.75 0.75 -2.03125 0.75l-9.03125 0l0 21.359375q0 4.078125 2.390625 6.6875q2.40625 2.59375 6.15625 2.59375l2.171875 0z" fill-rule="nonzero"></path></g></svg>

