<?xml version="1.0" standalone="yes"?>

<svg version="1.1" viewBox="0.0 0.0 609.0472440944882 609.0472440944882" fill="none" stroke="none" stroke-linecap="square" stroke-miterlimit="10" xmlns="http://www.w3.org/2000/svg" xmlns:xlink="http://www.w3.org/1999/xlink"><clipPath id="p.0"><path d="m0 0l609.04724 0l0 609.04724l-609.04724 0l0 -609.04724z" clip-rule="nonzero"></path></clipPath><g clip-path="url(#p.0)"><path fill="#ffffff" d="m0 0l609.04724 0l0 609.04724l-609.04724 0z" fill-rule="evenodd"></path><path fill="#000000" fill-opacity="0.0" d="m0 0l608.22046 0l0 608.22046l-608.22046 0z" fill-rule="evenodd"></path><path fill="#f6b26b" d="m196.47412 216.92584q1.671875 0 2.75 1.09375q1.09375 1.078125 1.09375 2.75q0 1.6875 -1.09375 2.765625q-1.078125 1.078125 -2.75 1.078125l-17.203125 0l0 50.640625q0 1.75 -1.203125 2.953125q-1.203125 1.203125 -2.953125 1.203125q-1.765625 0 -2.96875 -1.203125q-1.203125 -1.203125 -1.203125 -2.953125l0 -50.640625l-17.265625 0q-1.6875 0 -2.765625 -1.078125q-1.078125 -1.078125 -1.078125 -2.765625q0 -1.671875 1.078125 -2.75q1.078125 -1.09375 2.765625 -1.09375l42.796875 0zm53.348694 54.796875q1.84375 0 2.96875 1.046875q1.125 1.046875 1.125 2.71875q0 1.765625 -1.125 2.84375q-1.125 1.078125 -2.96875 1.078125l-36.15625 0q-1.75 0 -2.953125 -1.203125q-1.203125 -1.203125 -1.203125 -2.953125l0 -54.15625q0 -1.84375 1.203125 -3.0q1.203125 -1.171875 2.953125 -1.171875l36.15625 0q1.84375 0 2.96875 1.09375q1.125 1.078125 1.125 2.828125q0 1.6875 -1.125 2.734375q-1.125 1.03125 -2.96875 1.03125l-32.0 0l0 19.4375l22.96875 0q1.765625 0 2.921875 1.078125q1.15625 1.078125 1.15625 2.765625q0 1.671875 -1.15625 2.75q-1.15625 1.078125 -2.921875 1.078125l-22.96875 0l0 20.0l32.0 0zm74.09369 -54.796875q1.75 0 2.953125 1.203125q1.203125 1.203125 1.203125 2.96875l0 54.15625q0 1.75 -1.25 2.953125q-1.234375 1.203125 -2.90625 1.203125q-1.765625 0 -2.96875 -1.203125q-1.203125 -1.203125 -1.203125 -2.953125l0 -39.765625l-19.359375 39.4375q-1.359375 2.078125 -3.59375 2.078125q-2.640625 0 -3.84375 -2.46875l-19.125 -38.328125l0 39.046875q0 1.75 -1.203125 2.953125q-1.1875 1.203125 -2.953125 1.203125q-1.75 0 -2.953125 -1.203125q-1.203125 -1.203125 -1.203125 -2.953125l0 -54.15625q0 -1.765625 1.203125 -2.96875q1.203125 -1.203125 2.953125 -1.203125q2.40625 0 3.6875 2.25l23.75 47.59375l23.125 -47.59375q1.28125 -2.25 3.6875 -2.25zm28.466187 58.328125q0 1.75 -1.15625 2.953125q-1.15625 1.203125 -3.0 1.203125q-1.75 0 -2.953125 -1.203125q-1.203125 -1.203125 -1.203125 -2.953125l0 -54.15625q0 -1.84375 1.203125 -3.0q1.203125 -1.171875 2.953125 -1.171875l16.0 0q5.921875 0 10.59375 2.640625q4.6875 2.640625 7.28125 7.359375q2.609375 4.71875 2.609375 10.71875q0 5.84375 -2.609375 10.40625q-2.59375 4.5625 -7.28125 7.125q-4.671875 2.546875 -10.59375 2.546875l-11.84375 0l0 17.53125zm11.84375 -25.203125q5.4375 0 8.953125 -3.46875q3.53125 -3.484375 3.53125 -8.9375q0 -5.671875 -3.53125 -9.34375q-3.515625 -3.6875 -8.953125 -3.6875l-11.84375 0l0 25.4375l11.84375 0zm58.558716 -33.921875q9.203125 0 16.4375 4.078125q7.25 4.078125 11.28125 11.359375q4.046875 7.28125 4.046875 16.5625q0 9.28125 -4.046875 16.609375q-4.03125 7.3125 -11.234375 11.390625q-7.203125 4.078125 -16.484375 4.078125q-9.28125 0 -16.515625 -4.078125q-7.234375 -4.078125 -11.234375 -11.390625q-4.0 -7.328125 -4.0 -16.609375q0 -9.28125 4.0 -16.5625q4.0 -7.28125 11.234375 -11.359375q7.234375 -4.078125 16.515625 -4.078125zm0 7.515625q-6.875 0 -12.28125 3.203125q-5.390625 3.203125 -8.4375 8.8125q-3.03125 5.59375 -3.03125 12.46875q0 6.875 3.03125 12.484375q3.046875 5.59375 8.484375 8.84375q5.4375 3.234375 12.234375 3.234375q6.8125 0 12.25 -3.234375q5.4375 -3.25 8.46875 -8.84375q3.046875 -5.609375 3.046875 -12.484375q0 -6.875 -3.046875 -12.46875q-3.03125 -5.609375 -8.4375 -8.8125q-5.390625 -3.203125 -12.28125 -3.203125z" fill-rule="nonzero"></path><path fill="#cccccc" d="m40.483402 486.7857l0 0c0 -4.9576416 27.847393 -9.71228 77.41606 -13.217865c49.56868 -3.5056152 116.79822 -5.4750366 186.89891 -5.4750366l0 0c145.97711 0 264.31497 8.36911 264.31497 18.692902l0 0c0 10.323822 -118.33786 18.692932 -264.31497 18.692932l0 0c-145.97713 0 -264.31497 -8.36911 -264.31497 -18.692932z" fill-rule="evenodd"></path><path stroke="#cccccc" stroke-width="3.0" stroke-linejoin="round" stroke-linecap="butt" d="m40.483402 486.7857l0 0c0 -4.9576416 27.847393 -9.71228 77.41606 -13.217865c49.56868 -3.5056152 116.79822 -5.4750366 186.89891 -5.4750366l0 0c145.97711 0 264.31497 8.36911 264.31497 18.692902l0 0c0 10.323822 -118.33786 18.692932 -264.31497 18.692932l0 0c-145.97713 0 -264.31497 -8.36911 -264.31497 -18.692932z" fill-rule="evenodd"></path><path fill="#000000" fill-opacity="0.0" d="m572.8763 421.60385l-401.98428 63.811035" fill-rule="evenodd"></path><path stroke="#434343" stroke-width="4.0" stroke-linejoin="round" stroke-linecap="butt" d="m572.8763 421.60385l-401.98428 63.811035" fill-rule="evenodd"></path><path fill="#000000" fill-opacity="0.0" d="m584.58203 437.60385l-400.53546 -23.40158" fill-rule="evenodd"></path><path stroke="#434343" stroke-width="4.0" stroke-linejoin="round" stroke-linecap="butt" d="m584.58203 437.60385l-400.53546 -23.40158" fill-rule="evenodd"></path></g></svg>

